<svg xmlns="http://www.w3.org/2000/svg" width="800" height="500" viewBox="0 0 800 500" role="img" aria-label="بعد">
  <defs>
    <linearGradient id="g44" x1="0" y1="0" x2="1" y2="1">
      <stop offset="0%" stop-color="#efe3ee"/>
      <stop offset="55%" stop-color="#cbaac5"/>
      <stop offset="100%" stop-color="#6d4262"/>
    </linearGradient>
    <radialGradient id="g44h" cx="72%" cy="22%" r="62%">
      <stop offset="0%" stop-color="#ffffff" stop-opacity="0.55"/>
      <stop offset="100%" stop-color="#ffffff" stop-opacity="0"/>
    </radialGradient>
  </defs>
  <rect width="800" height="500" fill="url(#g44)"/>
  <g><circle cx="615.2" cy="120.7" r="52.5" fill="none" stroke="#ffffff" stroke-width="1" opacity="0.24"/><circle cx="487.3" cy="248.3" r="118.9" fill="none" stroke="#ffffff" stroke-width="1" opacity="0.17"/><circle cx="467.1" cy="348.4" r="81.4" fill="none" stroke="#ffffff" stroke-width="1" opacity="0.10"/><circle cx="703.1" cy="377.8" r="164.9" fill="none" stroke="#ffffff" stroke-width="1" opacity="0.10"/><circle cx="346.2" cy="296.6" r="117.5" fill="none" stroke="#ffffff" stroke-width="1" opacity="0.19"/><circle cx="398.6" cy="183.6" r="180.6" fill="none" stroke="#ffffff" stroke-width="1" opacity="0.12"/><circle cx="304.0" cy="439.8" r="101.9" fill="none" stroke="#ffffff" stroke-width="1" opacity="0.28"/><path d="M -20 228.2 Q 200 174.2 400 228.2 T 820 268.2" fill="none" stroke="#ffffff" stroke-width="1.2" opacity="0.16"/><path d="M -20 171.4 Q 200 92.9 400 171.4 T 820 211.4" fill="none" stroke="#ffffff" stroke-width="1.2" opacity="0.16"/><path d="M -20 229.2 Q 200 158.9 400 229.2 T 820 269.2" fill="none" stroke="#ffffff" stroke-width="1.2" opacity="0.16"/></g>
  <rect width="800" height="500" fill="url(#g44h)"/>
  <text x="400" y="268" text-anchor="middle" font-family="Vazirmatn, Tahoma, sans-serif" font-size="34" font-weight="700" fill="#ffffff" opacity="0.92">بعد</text>
  
</svg>